<svg width="36" height="37" viewBox="0 0 36 37" fill="none" xmlns="http://www.w3.org/2000/svg">
<rect y="0.09375" width="36" height="36" rx="18" fill="#C74817"/>
<path d="M25.7367 14.6875C25.7367 14.8633 25.7367 15.0039 25.7367 15.1797C25.7367 20.0664 22.0453 25.6562 15.2602 25.6562C13.1508 25.6562 11.2172 25.0586 9.6 24.0039C9.88125 24.0391 10.1625 24.0742 10.4789 24.0742C12.2016 24.0742 13.7836 23.4766 15.0492 22.4922C13.432 22.457 12.0609 21.4023 11.6039 19.9258C11.85 19.9609 12.0609 19.9961 12.307 19.9961C12.6234 19.9961 12.975 19.9258 13.2563 19.8555C11.5688 19.5039 10.3031 18.0273 10.3031 16.2344V16.1992C10.7953 16.4805 11.393 16.6211 11.9906 16.6562C10.9711 15.9883 10.3383 14.8633 10.3383 13.5977C10.3383 12.8945 10.5141 12.2617 10.8305 11.7344C12.6586 13.9492 15.4008 15.4258 18.4594 15.6016C18.3891 15.3203 18.3539 15.0391 18.3539 14.7578C18.3539 12.7188 20.0063 11.0664 22.0453 11.0664C23.1 11.0664 24.0492 11.4883 24.7523 12.2266C25.5609 12.0508 26.3695 11.7344 27.0727 11.3125C26.7914 12.1914 26.2289 12.8945 25.4555 13.3516C26.1938 13.2812 26.932 13.0703 27.5648 12.7891C27.0727 13.5273 26.4398 14.1602 25.7367 14.6875Z" fill="white"/>
</svg>
