<svg width="71" height="72" viewBox="0 0 71 72" fill="none" xmlns="http://www.w3.org/2000/svg">
<rect y="0.171875" width="71" height="71" rx="35.5" fill="#D3A863"/>
<path d="M21.741 19.2828L14.3452 19.2237C10.7952 19.2237 7.896 22.1228 7.896 25.732V33.1278C7.896 36.6778 10.7952 39.577 14.3452 39.577H22.3918C21.8002 43.7778 19.0785 47.3278 15.2327 49.0437C13.9902 49.517 13.221 50.8187 13.4577 52.1203C13.7535 53.422 14.8777 54.3687 16.2385 54.3687C16.5343 54.3687 16.8893 54.3095 17.2443 54.1912C24.8177 51.2328 28.2493 43.3637 28.2493 36.7962V25.732C28.2493 22.1228 25.3502 19.2237 21.741 19.2828ZM45.8218 19.2828L38.426 19.2237C34.8168 19.2237 31.9177 22.1228 31.9177 25.732V33.1278C31.9177 36.6778 34.8168 39.577 38.426 39.577H46.4135C45.8218 43.7778 43.1002 47.3278 39.2543 49.0437C38.0118 49.517 37.2427 50.8187 37.5385 52.1203C37.7752 53.422 38.8993 54.3687 40.2602 54.3687C40.6152 54.3687 40.911 54.3095 41.266 54.1912C48.8393 51.2328 52.271 43.3637 52.271 36.7962V25.732C52.271 22.1228 49.3718 19.2237 45.8218 19.2828ZM13.4577 33.1278V25.732C13.4577 25.1995 13.8718 24.7853 14.3452 24.7853H21.741C22.2735 24.7853 22.6877 25.1995 22.6877 25.732V34.0153H14.3452C13.8718 34.0153 13.4577 33.6603 13.4577 33.1278ZM37.4793 33.1278V25.732C37.4793 25.1995 37.8935 24.7853 38.426 24.7853H45.8218C46.2952 24.7853 46.7093 25.1995 46.7093 25.732V34.0153H38.426C37.8935 34.0153 37.4793 33.6603 37.4793 33.1278Z" fill="white"/>
</svg>
